<?xml version="1.0" encoding="UTF-8" standalone="no"?>
<svg
   width="1956"
   height="396"
   viewBox="0 0 1956 396"
   role="img"
   aria-labelledby="title desc"
   version="1.1"
   id="svg4"
   xmlns="http://www.w3.org/2000/svg"
   xmlns:svg="http://www.w3.org/2000/svg">
  <title
     id="title">KenAshe.ai header logo</title>
  <desc
     id="desc">Transparent vector logo with KA monogram and KenAshe.ai wordmark.</desc>
  <defs
     id="defs4">
    <linearGradient
       id="kaGradient"
       x1="0"
       y1="0"
       x2="1"
       y2="1">
      <stop
         offset="0%"
         stop-color="#0871AC"
         id="stop1" />
      <stop
         offset="45%"
         stop-color="#2E74C9"
         id="stop2" />
      <stop
         offset="76%"
         stop-color="#5795F5"
         id="stop3" />
      <stop
         offset="100%"
         stop-color="#183473"
         id="stop4" />
    </linearGradient>
  </defs>
  <g
     id="kenashe-logo"
     fill-rule="evenodd"
     clip-rule="evenodd">
    <path
       id="ka-monogram"
       d="M311.0,40.0 L241.0,40.0 L105.0,178.0 L104.0,41.0 L40.0,41.0 L41.0,355.0 L104.0,354.0 L104.0,251.0 L133.0,221.0 L201.0,302.0 L227.0,246.0 L171.0,183.0 Z M351.0,40.0 L290.0,173.0 L202.0,354.0 L319.0,355.0 L283.0,310.0 L361.0,141.0 L375.0,107.0 L378.0,104.0 L424.0,214.0 L352.0,215.0 L329.0,265.0 L443.0,265.0 L449.0,276.0 L482.0,355.0 L542.0,355.0 L542.0,351.0 L408.0,41.0 Z"
       fill="url(#kaGradient)" />
    <g
       id="wordmark-group"
       transform="translate(610,0) scale(1.08,1)">
      <path
         d="m 14.53125,270 h 30.9375 V 218.90625 L 69.375,191.83594 122.46094,270 h 36.09375 L 90.234375,170.97656 157.38281,95.390625 H 119.17969 L 72.773437,148.00781 C 63.632812,158.55469 54.609375,169.10156 45.46875,179.64844 V 95.390625 h -30.9375 z m 204.14062,2.8125 c 28.94532,0 51.91407,-16.75781 56.60157,-41.01563 h -27.65625 c -3.39844,10.54688 -13.35938,17.69532 -28.24219,17.69532 -19.92188,0 -31.40625,-13.47657 -32.10938,-33.63282 h 89.53125 v -8.08593 c 0,-37.96875 -23.67187,-64.33594 -59.29687,-64.33594 -34.6875,0 -59.17969,27.1875 -59.17969,64.80469 0,37.5 23.20313,64.57031 60.35156,64.57031 z M 187.5,195.46875 c 1.99219,-17.69531 13.35937,-28.59375 30.46875,-28.59375 17.10937,0 28.59375,10.89844 30.46875,28.59375 z m 138.86719,4.57031 c 0,-21.09375 11.60156,-30.35156 27.07031,-30.35156 15.82031,0 24.96094,9.49219 24.96094,27.65625 V 270 h 29.64843 v -77.34375 c 0,-31.75781 -18.28125,-48.86719 -44.17968,-48.86719 -16.99219,0 -29.53125,7.5 -37.96875,21.44531 V 146.25 h -29.0625 V 270 h 29.53125 z M 422.69531,270 h 33.28125 l 14.29688,-41.71875 h 67.73437 L 551.95312,270 h 34.10157 L 523.94531,95.390625 h -38.90625 z m 56.25,-67.14844 8.4375,-24.60937 c 5.27344,-16.05469 10.54688,-32.8125 17.10938,-54.84375 6.5625,22.03125 11.71875,38.78906 16.875,54.84375 l 8.20312,24.60937 z m 168.51563,70.07813 c 30.58593,0 52.5,-15.23438 52.5,-39.375 0,-18.16407 -11.36719,-28.94532 -35.85938,-34.10157 l -22.26562,-4.57031 c -10.3125,-2.22656 -16.40625,-6.79687 -16.40625,-14.17969 0,-8.4375 7.96875,-15 20.97656,-15 13.47656,0 22.5,8.08594 22.73437,19.10157 h 27.77344 c -0.70312,-25.42969 -21.21094,-41.25 -51.21094,-41.25 -30.23437,0 -49.80468,15.35156 -49.80468,38.08593 0,18.75 12.42187,30.82032 36.09375,35.74219 l 21.09375,4.33594 c 10.42968,2.22656 16.875,6.5625 16.875,14.0625 0,8.78906 -8.67188,15 -22.96875,15 -14.76563,0 -23.4375,-6.91406 -24.72657,-18.98438 h -29.17968 c 1.875,26.60157 24.25781,41.13282 54.375,41.13282 z m 102.1875,-72.89063 c 0,-21.09375 11.60156,-30.35156 27.07031,-30.35156 15.82031,0 24.96094,9.49219 24.96094,27.65625 V 270 h 29.64843 v -77.34375 c 0,-31.75781 -18.28125,-48.86719 -44.17968,-48.86719 -16.64063,0 -29.0625,7.14844 -37.5,20.625 V 95.390625 H 720.11719 V 270 h 29.53125 z M 912.1875,272.8125 c 28.94531,0 51.91406,-16.75781 56.60156,-41.01563 h -27.65625 c -3.39844,10.54688 -13.35937,17.69532 -28.24219,17.69532 -19.92187,0 -31.40625,-13.47657 -32.10937,-33.63282 h 89.53125 v -8.08593 c 0,-37.96875 -23.67188,-64.33594 -59.29688,-64.33594 -34.6875,0 -59.17968,27.1875 -59.17968,64.80469 0,37.5 23.20312,64.57031 60.35156,64.57031 z m -31.17188,-77.34375 c 1.99219,-17.69531 13.35938,-28.59375 30.46875,-28.59375 17.10938,0 28.59375,10.89844 30.46875,28.59375 z m 124.57028,76.64062 c 10.0782,0 18.1641,-8.08593 18.1641,-18.16406 0,-10.07812 -8.0859,-18.16406 -18.1641,-18.16406 -10.07809,0 -18.16403,8.08594 -18.16403,18.16406 0,10.07813 8.08594,18.16406 18.16403,18.16406 z m 79.2188,-0.11718 c 20.1562,0 30.5859,-8.4375 36.4453,-19.45313 h 0.4688 V 270 h 29.0625 v -84.375 c 0,-25.78125 -19.1016,-41.83594 -51.3282,-41.83594 -32.3437,0 -52.5,16.28906 -53.9062,40.89844 h 28.4765 c 0.8204,-10.42969 10.4297,-17.92969 24.8438,-17.92969 14.1797,0 22.6172,7.5 22.6172,18.04688 v 0.9375 c 0,8.4375 -7.8516,8.78906 -30.8203,11.36718 -25.5469,2.69532 -48.6328,9.60938 -48.6328,37.73438 0,24.72656 18.164,37.14844 42.7734,37.14844 z m 7.2656,-21.91407 c -12.8906,0 -21.2109,-5.74218 -21.2109,-15.46875 0,-11.25 10.7812,-15.82031 23.4375,-17.69531 12.1875,-1.875 23.6719,-3.75 27.3047,-6.09375 v 13.35938 c 0,14.41406 -10.1953,25.89843 -29.5313,25.89843 z M 1176.9141,270 h 29.5312 V 146.25 h -29.5312 z m 14.7656,-142.14844 c 10.0781,0 17.6953,-7.26562 17.6953,-16.875 0,-9.49218 -7.6172,-16.75781 -17.6953,-16.75781 -10.0781,0 -17.6953,7.26563 -17.6953,16.75781 0,9.60938 7.6172,16.875 17.6953,16.875 z"
         id="wordmark"
         style="font-weight:600;font-size:240px;font-family:'Inter Display', Inter, Arial, sans-serif;fill:#011338"
         aria-label="KenAshe.ai" />
    </g>
  </g>
</svg>
